<svg xmlns="http://www.w3.org/2000/svg" xmlns:xlink="http://www.w3.org/1999/xlink" version="1.1" id="Layer_1" x="0px" y="0px" width="1280px" height="1080px" viewBox="0 0 1280 1080" enable-background="new 0 0 1280 1080" xml:space="preserve" hola_ext_inject="inited">
<line display="none" fill="#1f253a" stroke="#f5f7fa" stroke-width="3" stroke-miterlimit="10" x1="747.188" y1="408.5" x2="789.5" y2="437.5"/>
<g>
	<line fill="none" stroke="#f5f7fa" stroke-width="2" stroke-miterlimit="10" x1="373" y1="319.084" x2="353" y2="281.084"/>
	
		<line fill="none" stroke="#f5f7fa" stroke-width="2" stroke-miterlimit="10" x1="697.614" y1="410.084" x2="691.334" y2="450.418"/>
	<line fill="none" stroke="#f5f7fa" stroke-width="2" stroke-miterlimit="10" x1="629.667" y1="259.085" x2="748.66" y2="245.158"/>
	<line fill="none" stroke="#f5f7fa" stroke-width="2" stroke-miterlimit="10" x1="617.667" y1="260.418" x2="743" y2="318.418"/>
	<line fill="none" stroke="#f5f7fa" stroke-width="2" stroke-miterlimit="10" x1="748.5" y1="396.834" x2="786" y2="403.084"/>
	<line fill="none" stroke="#f5f7fa" stroke-width="2" stroke-miterlimit="10" x1="665" y1="684.084" x2="746.333" y2="577.751"/>
	
		<line fill="none" stroke="#f5f7fa" stroke-width="2" stroke-miterlimit="10" x1="586.101" y1="204.177" x2="620.591" y2="256.689"/>
	<line fill="none" stroke="#f5f7fa" stroke-width="2" stroke-miterlimit="10" x1="823.5" y1="462.084" x2="836" y2="510.084"/>
	<g>
		<path fill-rule="evenodd" clip-rule="evenodd" fill="#1f253a" stroke="none" stroke-width="2" stroke-miterlimit="10" d="    M687.642,671.813c-3.085,9.348-4.553,18.598-9.006,26.068c-5.508,9.238-12.116,18.972-20.707,24.976    c-16.206,11.329-26.548,26.067-33.042,44.044c-6.59,18.242-9.417,37.217-9.481,56.585c-0.073,22.058,0,44.116,0,66.175    c0,13.284-5.675,22.981-16.318,27.1c-11.854,4.587-21.994,1.747-30.646-7.517c-10.851-11.615-21.932-23.017-32.868-34.552    c-7.571-7.987-11.345-17.365-11.131-28.542c0.294-15.345,0.073-30.7,0.073-44.628c-8.427-3.971-15.619-7.563-23.007-10.696    c-1.869-0.794-4.399-0.392-6.558-0.075c-39.836,5.824-77.817,1.344-112.178-21.176c-30.79-20.182-48.715-48.356-51.436-85.625    c-0.174-2.382-2.124-6.016-4.066-6.683c-35.818-12.311-57.192-38.239-64.5-74.046c-4.643-22.743-11.646-44.926-15.294-67.788    c-4.616-28.937,0.879-56.525,13.713-82.843c2.704-5.545,4.275-11.852,5.271-17.986c4.702-28.962,19.793-51.245,43.209-68.212    c3.745-2.714,5.677-5.494,6.517-10.261c9.943-56.396,43.541-92.766,96.206-112.919c3.293-1.26,6.821-3.597,8.764-6.441    c31.067-45.5,91.997-68.004,145.089-53.126c4.482,1.255,7.884,1.078,12.064-1.459c35.421-21.504,73.119-26.304,113.035-15.021    c5.427,1.534,11.551,2.133,17.116,1.396c50.989-6.75,98.257,2.903,141.95,30.393c4.844,3.046,11.555,3.259,17.467,4.448    c37.273,7.491,66.104,27.733,88.506,57.972c2.482,3.348,5.912,6.285,9.471,8.499c43.318,26.948,69.473,64.291,68.039,116.749    c-0.43,15.796-0.156,31.432,0.223,47.18c0.668,27.731-11.215,49.947-32.57,67.375c-2.451,2-4.883,4.589-6.119,7.429    c-14.963,34.423-42.281,51.78-78.451,55.976c-8.883,1.03-12.57,3.725-15.322,12.518c-15.057,48.109-48.75,77.515-96.031,92.433    C766.577,681.85,727.284,684.675,687.642,671.813z"/>
	</g>
	<line fill="none" stroke="#f5f7fa" stroke-width="2" stroke-miterlimit="10" x1="462.75" y1="198.584" x2="515.597" y2="297.187"/>
	<line fill="none" stroke="#f5f7fa" stroke-width="2" stroke-miterlimit="10" x1="515.597" y1="297.187" x2="361.25" y2="273.584"/>
	<polyline fill="none" stroke="#f5f7fa" stroke-width="2" stroke-miterlimit="10" points="269.609,418.681 341.605,423.181    436.101,477.178  "/>
	<line fill="none" stroke="#f5f7fa" stroke-width="2" stroke-miterlimit="10" x1="436.101" y1="477.178" x2="251.61" y2="555.174"/>
	
		<line fill="none" stroke="#f5f7fa" stroke-width="2" stroke-miterlimit="10" x1="436.101" y1="477.178" x2="439.101" y2="589.672"/>
	
		<line fill="none" stroke="#f5f7fa" stroke-width="2" stroke-miterlimit="10" x1="439.101" y1="589.672" x2="296.608" y2="538.675"/>
	
		<line fill="none" stroke="#f5f7fa" stroke-width="2" stroke-miterlimit="10" x1="436.101" y1="477.178" x2="425.208" y2="407.959"/>
	<line fill="none" stroke="#f5f7fa" stroke-width="2" stroke-miterlimit="10" x1="449.6" y1="372.183" x2="515.597" y2="297.187"/>
	<polyline fill="none" stroke="#f5f7fa" stroke-width="2" stroke-miterlimit="10" points="323.606,325.686 373.667,323.751    425.667,372.751  "/>
	
		<line fill="none" stroke="#f5f7fa" stroke-width="2" stroke-miterlimit="10" x1="439.101" y1="589.672" x2="327.269" y2="677.267"/>
	
		<line fill="none" stroke="#f5f7fa" stroke-width="2" stroke-miterlimit="10" x1="294.601" y1="536.677" x2="349.105" y2="658.668"/>
	
		<line fill="none" stroke="#f5f7fa" stroke-width="2" stroke-miterlimit="10" x1="580.094" y1="637.669" x2="440.601" y2="478.678"/>
	
		<line fill="none" stroke="#f5f7fa" stroke-width="2" stroke-miterlimit="10" x1="439.101" y1="589.672" x2="580.094" y2="637.669"/>
	<polyline fill="none" stroke="#f5f7fa" stroke-width="2" stroke-miterlimit="10" points="580.094,637.669 444.851,701.927    344.605,661.668  "/>
	
		<line fill="none" stroke="#f5f7fa" stroke-width="2" stroke-miterlimit="10" x1="444.851" y1="701.927" x2="398.603" y2="778.662"/>
	
		<line fill="none" stroke="#f5f7fa" stroke-width="2" stroke-miterlimit="10" x1="444.851" y1="701.927" x2="501.507" y2="790.825"/>
	
		<line fill="none" stroke="#f5f7fa" stroke-width="2" stroke-miterlimit="10" x1="501.507" y1="790.825" x2="580.094" y2="637.669"/>
	
		<line fill="none" stroke="#f5f7fa" stroke-width="2" stroke-miterlimit="10" x1="580.094" y1="637.669" x2="535.572" y2="874.691"/>
	
		<line fill="none" stroke="#f5f7fa" stroke-width="2" stroke-miterlimit="10" x1="615.405" y1="823.485" x2="559.095" y2="759.163"/>
	<polyline fill="none" stroke="#f5f7fa" stroke-width="2" stroke-miterlimit="10" points="559.095,759.163 663.601,688.677    682.75,688.084  "/>
	<circle fill="#f5f7fa" stroke="#f5f7fa" stroke-width="3" stroke-miterlimit="10" cx="444.851" cy="701.927" r="14.249"/>
	<circle fill="#f5f7fa" stroke="#f5f7fa" stroke-width="3" stroke-miterlimit="10" cx="438.851" cy="589.927" r="14.249"/>
	<circle fill="#f5f7fa" stroke="#f5f7fa" stroke-width="3" stroke-miterlimit="10" cx="350.851" cy="657.927" r="14.249"/>
	
		<line fill="none" stroke="#f5f7fa" stroke-width="2" stroke-miterlimit="10" x1="436.101" y1="477.178" x2="520.333" y2="409.418"/>
	<polyline fill="none" stroke="#f5f7fa" stroke-width="2" stroke-miterlimit="10" points="580.094,637.669 552,481.084 559,408.418     "/>
	
		<line fill="none" stroke="#f5f7fa" stroke-width="2" stroke-miterlimit="10" x1="575.594" y1="636.169" x2="679.089" y2="540.175"/>
	
		<line fill="none" stroke="#f5f7fa" stroke-width="2" stroke-miterlimit="10" x1="679.089" y1="540.175" x2="598.093" y2="409.681"/>
	
		<line fill="none" stroke="#f5f7fa" stroke-width="2" stroke-miterlimit="10" x1="691.088" y1="453.179" x2="632.833" y2="408.918"/>
	<line fill="none" stroke="#f5f7fa" stroke-width="2" stroke-miterlimit="10" x1="723" y1="442.084" x2="691.088" y2="453.179"/>
	<line fill="none" stroke="#f5f7fa" stroke-width="2" stroke-miterlimit="10" x1="747" y1="463.084" x2="748.333" y2="577.751"/>
	
		<line fill="none" stroke="#f5f7fa" stroke-width="2" stroke-miterlimit="10" x1="746.333" y1="577.751" x2="679.089" y2="540.175"/>
	
		<line fill="none" stroke="#f5f7fa" stroke-width="2" stroke-miterlimit="10" x1="753.667" y1="577.751" x2="578.851" y2="637.927"/>
	
		<line fill="none" stroke="#f5f7fa" stroke-width="2" stroke-miterlimit="10" x1="747.189" y1="578.171" x2="745.314" y2="679.667"/>
	<circle fill="#f5f7fa" stroke="#f5f7fa" stroke-width="2" stroke-miterlimit="10" cx="557.101" cy="761.177" r="10.499"/>
	
		<line fill="none" stroke="#f5f7fa" stroke-width="2" stroke-miterlimit="10" x1="690.333" y1="455.084" x2="677.851" y2="540.927"/>
	<circle fill="#f5f7fa" stroke="#f5f7fa" stroke-width="2" stroke-miterlimit="10" cx="690.601" cy="453.677" r="11.999"/>
	
		<line fill="none" stroke="#f5f7fa" stroke-width="2" stroke-miterlimit="10" x1="519.125" y1="304.084" x2="535.542" y2="381.084"/>
	<polyline fill="none" stroke="#f5f7fa" stroke-width="2" stroke-miterlimit="10" points="518,295.084 584.461,206.922    642.333,161.084  "/>
	<line fill="none" stroke="#f5f7fa" stroke-width="2" stroke-miterlimit="10" x1="597.667" y1="371.084" x2="630" y2="338.084"/>
	
		<line fill="none" stroke="#f5f7fa" stroke-width="2" stroke-miterlimit="10" x1="633.851" y1="330.927" x2="515.851" y2="296.927"/>
	<line fill="none" stroke="#f5f7fa" stroke-width="2" stroke-miterlimit="10" x1="635" y1="327.084" x2="623" y2="262.084"/>
	<line fill="none" stroke="#f5f7fa" stroke-width="2" stroke-miterlimit="10" x1="624" y1="256.084" x2="708.459" y2="168.56"/>
	<line fill="none" stroke="#f5f7fa" stroke-width="2" stroke-miterlimit="10" x1="641" y1="333.084" x2="672" y2="369.084"/>
	<line fill="none" stroke="#f5f7fa" stroke-width="2" stroke-miterlimit="10" x1="723.5" y1="381.084" x2="737" y2="326.084"/>
	<line fill="none" stroke="#f5f7fa" stroke-width="2" stroke-miterlimit="10" x1="640" y1="328.084" x2="736" y2="319.084"/>
	<polyline fill="none" stroke="#f5f7fa" stroke-width="2" stroke-miterlimit="10" points="742.125,314.084 748.66,245.158    744,166.084  "/>
	<line fill="none" stroke="#f5f7fa" stroke-width="2" stroke-miterlimit="10" x1="755" y1="241.084" x2="858" y2="202.084"/>
	<circle fill="#f5f7fa" stroke="#f5f7fa" stroke-width="3" stroke-miterlimit="10" cx="633.851" cy="330.927" r="14.249"/>
	<circle fill="#f5f7fa" stroke="#f5f7fa" stroke-width="2" stroke-miterlimit="10" cx="624.101" cy="260.177" r="10.499"/>
	<line fill="none" stroke="#f5f7fa" stroke-width="2" stroke-miterlimit="10" x1="754" y1="246.084" x2="866" y2="301.084"/>
	<line fill="none" stroke="#f5f7fa" stroke-width="2" stroke-miterlimit="10" x1="746" y1="321.084" x2="866" y2="307.084"/>
	<line fill="none" stroke="#f5f7fa" stroke-width="2" stroke-miterlimit="10" x1="786.333" y1="401.084" x2="746" y2="326.084"/>
	<line fill="none" stroke="#f5f7fa" stroke-width="2" stroke-miterlimit="10" x1="789.333" y1="399.751" x2="917" y2="393.084"/>
	<line fill="none" stroke="#f5f7fa" stroke-width="2" stroke-miterlimit="10" x1="917" y1="393.084" x2="845.5" y2="434.084"/>
	<line fill="none" stroke="#f5f7fa" stroke-width="2" stroke-miterlimit="10" x1="823.5" y1="433.834" x2="788.333" y2="402.418"/>
	<line fill="none" stroke="#f5f7fa" stroke-width="2" stroke-miterlimit="10" x1="917" y1="393.084" x2="958" y2="456.084"/>
	<line fill="none" stroke="#f5f7fa" stroke-width="2" stroke-miterlimit="10" x1="958" y1="456.084" x2="1031" y2="455.084"/>
	<line fill="none" stroke="#f5f7fa" stroke-width="2" stroke-miterlimit="10" x1="962" y1="456.084" x2="983" y2="339.084"/>
	<line fill="none" stroke="#f5f7fa" stroke-width="2" stroke-miterlimit="10" x1="983" y1="339.084" x2="1030" y2="347.084"/>
	<line fill="none" stroke="#f5f7fa" stroke-width="2" stroke-miterlimit="10" x1="983" y1="339.084" x2="917" y2="393.084"/>
	<line fill="none" stroke="#f5f7fa" stroke-width="2" stroke-miterlimit="10" x1="983" y1="339.084" x2="872" y2="302.084"/>
	<line fill="none" stroke="#f5f7fa" stroke-width="2" stroke-miterlimit="10" x1="872" y1="302.084" x2="930.333" y2="233.584"/>
	<circle fill="#f5f7fa" stroke="#f5f7fa" stroke-width="3" stroke-miterlimit="10" cx="740.851" cy="318.927" r="14.249"/>
	<circle fill="#f5f7fa" stroke="#f5f7fa" stroke-width="2" stroke-miterlimit="10" cx="750.101" cy="244.177" r="10.499"/>
	<line fill="none" stroke="#f5f7fa" stroke-width="2" stroke-miterlimit="10" x1="809" y1="461.834" x2="750.333" y2="571.084"/>
	
		<line fill="none" stroke="#f5f7fa" stroke-width="2" stroke-miterlimit="10" x1="839.101" y1="516.177" x2="750.333" y2="578.418"/>
	<line fill="none" stroke="#f5f7fa" stroke-width="2" stroke-miterlimit="10" x1="748.333" y1="577.751" x2="840" y2="634.084"/>
	
		<line fill="none" stroke="#f5f7fa" stroke-width="2" stroke-miterlimit="10" x1="839.047" y1="634.084" x2="842.259" y2="516.177"/>
	<line fill="none" stroke="#f5f7fa" stroke-width="2" stroke-miterlimit="10" x1="835.98" y1="519.583" x2="943" y2="514.084"/>
	<line fill="none" stroke="#f5f7fa" stroke-width="2" stroke-miterlimit="10" x1="943" y1="514.084" x2="845.75" y2="461.834"/>
	<line fill="none" stroke="#f5f7fa" stroke-width="2" stroke-miterlimit="10" x1="870.125" y1="462.084" x2="962" y2="456.084"/>
	<line fill="none" stroke="#f5f7fa" stroke-width="2" stroke-miterlimit="10" x1="962" y1="456.084" x2="987" y2="525.084"/>
	<line fill="none" stroke="#f5f7fa" stroke-width="2" stroke-miterlimit="10" x1="943" y1="514.084" x2="962" y2="550.084"/>
	<circle fill="#f5f7fa" stroke="#f5f7fa" stroke-width="3" stroke-miterlimit="10" cx="960.851" cy="454.927" r="14.249"/>
	<circle fill="#f5f7fa" stroke="#f5f7fa" stroke-width="3" stroke-miterlimit="10" cx="942.851" cy="512.927" r="14.249"/>
	<circle fill="#f5f7fa" stroke="#f5f7fa" stroke-width="2" stroke-miterlimit="10" cx="983.101" cy="339.177" r="10.499"/>
	<line fill="none" stroke="#f5f7fa" stroke-width="2" stroke-miterlimit="10" x1="840.48" y1="521.417" x2="904.5" y2="570.584"/>
	<circle fill="#f5f7fa" stroke="#f5f7fa" stroke-width="3" stroke-miterlimit="10" cx="748.851" cy="573.927" r="14.249"/>
	<circle fill="#f5f7fa" stroke="#f5f7fa" stroke-width="2" stroke-miterlimit="10" cx="839.101" cy="516.177" r="10.499"/>
	<line fill="none" stroke="#f5f7fa" stroke-width="2" stroke-miterlimit="10" x1="552" y1="481.084" x2="673" y2="538.084"/>
	<line fill="none" stroke="#f5f7fa" stroke-width="2" stroke-miterlimit="10" x1="545" y1="479.084" x2="436.101" y2="477.178"/>
	<circle fill="#f5f7fa" stroke="#f5f7fa" stroke-width="2" stroke-miterlimit="10" cx="551.601" cy="480.677" r="11.999"/>
	<circle fill="#f5f7fa" stroke="#f5f7fa" stroke-width="3" stroke-miterlimit="10" cx="434.851" cy="478.927" r="14.249"/>
	<circle fill="#f5f7fa" stroke="#f5f7fa" stroke-width="3" stroke-miterlimit="10" cx="677.851" cy="540.927" r="14.249"/>
	<rect x="715.119" y="420.447" fill-rule="evenodd" clip-rule="evenodd" fill="none" width="175.492" height="61.497"/>
	<text xmlns="http://www.w3.org/2000/svg" transform="matrix(1 0 0 1 715.1191 463.4824)" fill="orange" font-family="Montserrat" font-size="58" font-weight="300">Learn</text>
	<rect x="416.625" y="367.438" fill-rule="evenodd" clip-rule="evenodd" fill="none" width="352.482" height="61.497"/>
	<text xmlns="http://www.w3.org/2000/svg" transform="matrix(1 0 0 1 416.625 410.4736)" fill="#f5f7fa" font-family="Montserrat" font-weight="400" font-size="58">Foundation</text>
	
		<line fill="none" stroke="#f5f7fa" stroke-width="2" stroke-miterlimit="10" x1="336.601" y1="426.677" x2="295.108" y2="531.176"/>
	<circle fill="#f5f7fa" stroke="#f5f7fa" stroke-width="2" stroke-miterlimit="10" cx="294.601" cy="536.677" r="11.999"/>
	
		<line fill="none" stroke="#f5f7fa" stroke-width="2" stroke-miterlimit="10" x1="580.094" y1="637.669" x2="667.089" y2="688.667"/>
	<circle fill="#f5f7fa" stroke="#f5f7fa" stroke-width="2" stroke-miterlimit="10" cx="663.601" cy="688.677" r="11.999"/>
	<circle fill="#f5f7fa" stroke="#f5f7fa" stroke-width="3" stroke-miterlimit="10" cx="578.851" cy="637.927" r="14.249"/>
	<line fill="none" stroke="#f5f7fa" stroke-width="2" stroke-miterlimit="10" x1="872" y1="302.084" x2="913.076" y2="384.183"/>
	<line fill="none" stroke="#f5f7fa" stroke-width="2" stroke-miterlimit="10" x1="872" y1="302.084" x2="790.667" y2="397.084"/>
	<circle fill="#f5f7fa" stroke="#f5f7fa" stroke-width="2" stroke-miterlimit="10" cx="787.101" cy="401.177" r="10.499"/>
	<circle fill="#f5f7fa" stroke="#f5f7fa" stroke-width="3" stroke-miterlimit="10" cx="915.851" cy="389.927" r="14.249"/>
	<circle fill="#f5f7fa" stroke="#f5f7fa" stroke-width="2" stroke-miterlimit="10" cx="870.601" cy="301.677" r="12.999"/>
	<line fill="none" stroke="#f5f7fa" stroke-width="2" stroke-miterlimit="10" x1="840.101" y1="634.177" x2="841.08" y2="654.919"/>
	<circle fill="#f5f7fa" stroke="#f5f7fa" stroke-width="2" stroke-miterlimit="10" cx="840.101" cy="634.177" r="10.499"/>
	
		<line fill="none" stroke="#f5f7fa" stroke-width="2" stroke-miterlimit="10" x1="369.667" y1="326.418" x2="338.333" y2="425.084"/>
	<circle fill="#f5f7fa" stroke="#f5f7fa" stroke-width="3" stroke-miterlimit="10" cx="336.601" cy="426.677" r="11.999"/>
	
		<line fill="none" stroke="#f5f7fa" stroke-width="2" stroke-miterlimit="10" x1="371.667" y1="325.084" x2="509.667" y2="298.418"/>
	<circle fill="#f5f7fa" stroke="#f5f7fa" stroke-width="3" stroke-miterlimit="10" cx="515.851" cy="296.927" r="14.249"/>
	<circle fill="#f5f7fa" stroke="#f5f7fa" stroke-width="2" stroke-miterlimit="10" cx="373.101" cy="323.177" r="10.499"/>
	<line fill="none" stroke="#f5f7fa" stroke-width="2" stroke-miterlimit="10" x1="526.333" y1="179.418" x2="578" y2="201.084"/>
	<circle fill="#f5f7fa" stroke="#f5f7fa" stroke-width="2" stroke-miterlimit="10" cx="586.101" cy="204.177" r="10.499"/>
</g>
</svg>